<?xml version="1.0" encoding="utf-8"?><svg xml:space="preserve" viewBox="0 0 100 100" y="0" x="0" xmlns="http://www.w3.org/2000/svg" id="圖層_1" version="1.1" width="50px" height="50px" xmlns:xlink="http://www.w3.org/1999/xlink" style="width:100%;height:100%;background-size:initial;background-repeat-y:initial;background-repeat-x:initial;background-position-y:initial;background-position-x:initial;background-origin:initial;background-color:initial;background-clip:initial;background-attachment:initial;animation-play-state:paused" ><g class="ldl-scale" style="transform-origin:50% 50%;transform:rotate(0deg) scale(0.8, 0.8);animation-play-state:paused" ><path fill="#333" d="M50 5C25.187 5 5 25.187 5 50s20.187 45 45 45 45-20.187 45-45S74.813 5 50 5zm0 80c-19.299 0-35-15.701-35-35s15.701-35 35-35 35 15.701 35 35-15.701 35-35 35z" style="fill:rgb(51, 51, 51);animation-play-state:paused" ></path>
<path fill="#e15b64" d="M68.536 38.536L57.065 50.007l11.458 11.458a5 5 0 1 1-7.072 7.071L49.993 57.078 39.205 67.867c-.977.976-2.256 1.464-3.536 1.464s-2.559-.488-3.536-1.464a5 5 0 0 1 0-7.071l10.789-10.789-11.458-11.458a5 5 0 1 1 7.071-7.071l11.458 11.458 11.471-11.471a5.001 5.001 0 0 1 7.072 7.071z" style="fill:rgb(225, 91, 100);animation-play-state:paused" ></path>
<metadata xmlnsd="https://loading.io/stock/" style="animation-play-state:paused" ><dName style="animation-play-state:paused" >uncheck</dName>
<dTags style="animation-play-state:paused" >fail,close,times,disable,option,select,choice,off,uncheck,form</dTags>
<dLicense style="animation-play-state:paused" >free</dLicense>
<dSlug style="animation-play-state:paused" >fc33k9</dSlug></metadata></g><!-- generated by https://loading.io/ --></svg>