<?xml version="1.0" encoding="utf-8"?><svg xml:space="preserve" viewBox="0 0 100 100" y="0" x="0" xmlns="http://www.w3.org/2000/svg" id="圖層_1" version="1.1" width="200px" height="200px" xmlns:xlink="http://www.w3.org/1999/xlink" style="width:50px;height:50px;background-size:initial;background-repeat-y:initial;background-repeat-x:initial;background-position-y:initial;background-position-x:initial;background-origin:initial;background-color:initial;background-clip:initial;background-attachment:initial;animation-play-state:paused" ><g class="ldl-scale" style="transform-origin:50% 50%;transform:rotate(0deg) scale(0.8, 0.8);animation-play-state:paused" ><path fill="#333" d="M78.505 36.732c1.205 0 1.834 1.492 1.02 2.417L51.02 71.548a1.352 1.352 0 0 1-1.02.468c-.373 0-.746-.156-1.02-.468L20.475 39.15c-.814-.925-.184-2.417 1.02-2.417h19.82V11.734c0-1.115.867-2.019 1.937-2.019h13.495c1.07 0 1.937.904 1.937 2.019v24.998h19.821z" id="XMLID_4_" style="fill:rgb(67, 127, 121);animation-play-state:paused" ></path>
<g style="animation-play-state:paused" ><path fill="#666" d="M78.142 90.284H21.858A1.858 1.858 0 0 1 20 88.426v-8.284c0-1.026.832-1.858 1.858-1.858h56.284c1.026 0 1.858.832 1.858 1.858v8.284a1.858 1.858 0 0 1-1.858 1.858z" style="fill:rgb(29, 81, 103);animation-play-state:paused" ></path></g>
<metadata xmlnsd="https://loading.io/stock/" style="animation-play-state:paused" ><dName style="animation-play-state:paused" >lowercase</dName>


<dTags style="animation-play-state:paused" >download,arrow,save,keep,get,bottom,lowercase,form</dTags>


<dLicense style="animation-play-state:paused" >by</dLicense>


<dSlug style="animation-play-state:paused" >wnpemn</dSlug></metadata></g><!-- generated by https://loading.io/ --></svg>