<?xml version="1.0" encoding="utf-8"?><svg xml:space="preserve" viewBox="0 0 100 100" y="0" x="0" xmlns="http://www.w3.org/2000/svg" id="圖層_1" version="1.1" width="30px" height="30px" xmlns:xlink="http://www.w3.org/1999/xlink" style="width:100%;height:100%;background-size:initial;background-repeat-y:initial;background-repeat-x:initial;background-position-y:initial;background-position-x:initial;background-origin:initial;background-color:initial;background-clip:initial;background-attachment:initial;animation-play-state:paused" ><g class="ldl-scale" style="transform-origin:50% 50%;transform:rotate(0deg) scale(0.8, 0.8);animation-play-state:paused" ><path stroke-miterlimit="10" stroke-width="6" stroke="#333" fill="#fff" d="M84.667 77H15.333A5.333 5.333 0 0 1 10 71.667V28.333A5.333 5.333 0 0 1 15.333 23h69.333A5.334 5.334 0 0 1 90 28.333v43.333A5.334 5.334 0 0 1 84.667 77z" style="stroke:rgb(51, 51, 51);fill:rgb(255, 255, 255);animation-play-state:paused" ></path>
<path fill="#333" d="M35.833 38.583a3 3 0 1 0 0-6H24.167a3 3 0 1 0 0 6H27v22.833h-2.833a3 3 0 1 0 0 6h11.667a3 3 0 1 0 0-6H33V38.583h2.833z" style="fill:rgb(51, 51, 51);animation-play-state:paused" ></path>
<metadata xmlnsd="https://loading.io/stock/" style="animation-play-state:paused" ><dName style="animation-play-state:paused" >input</dName>
<dTags style="animation-play-state:paused" >keyboard,type,enter,cursor,press,text,input,form</dTags>
<dLicense style="animation-play-state:paused" >free</dLicense>
<dSlug style="animation-play-state:paused" >v43p83</dSlug></metadata></g><!-- generated by https://loading.io/ --></svg>