<?xml version="1.0" encoding="utf-8"?><svg viewBox="0 0 100 100" xmlns="http://www.w3.org/2000/svg" width="30px" height="30px" xmlns:xlink="http://www.w3.org/1999/xlink" style="width:100%;height:100%;background-size:initial;background-repeat-y:initial;background-repeat-x:initial;background-position-y:initial;background-position-x:initial;background-origin:initial;background-color:initial;background-clip:initial;background-attachment:initial;animation-play-state:paused" ><g class="ldl-scale" style="transform-origin:50% 50%;transform:rotate(0deg) scale(0.8, 0.8);animation-play-state:paused" ><path fill="#e0e0e0" d="M77.5 28.8L61.2 12.5C60 11.3 59 10.8 58 10.8H22.6c-.9 0-1.7.8-1.7 1.7v75.1c0 .9.8 1.7 1.7 1.7h54.8c.9 0 1.7-.8 1.7-1.7V32c0-1-.5-2.1-1.6-3.2z" style="fill:rgb(255, 255, 255);animation-play-state:paused" ></path>
<path fill="#666766" d="M62.4 28.8h15.1L61.2 12.5v15.1c0 .6.6 1.2 1.2 1.2z" style="fill:rgb(214, 46, 46);animation-play-state:paused" ></path>
<path fill="#010101" d="M62.3 8.3c-.5-.5-1.2-.8-1.9-.8H22.6c-2.7 0-5 2.2-5 5v75.1c0 2.7 2.2 5 5 5h54.8c2.7 0 5-2.2 5-5V31.1c0-1.8-.7-3.4-1.9-4.7L62.3 8.3zm-1.1 4.2l16.2 16.2h-15c-.7 0-1.2-.5-1.2-1.2m17.9 60c0 .9-.8 1.7-1.7 1.7H22.6c-.9 0-1.7-.8-1.7-1.7v-75c0-.9.8-1.7 1.7-1.7H58v16.8c0 2.5 2 4.5 4.5 4.5h16.7v55.4z" style="fill:rgb(252, 92, 92);animation-play-state:paused" ></path>
<path d="M28.133 58.005v26.21h3.962v-10.4H34.8c4.419 0 7.39-3.124 7.39-8.419 0-3.581-2.247-7.391-7.619-7.391zm3.962 3.848h2.476c3.2 0 3.619 2.743 3.619 3.657 0 1.105-.076 4.19-3.847 4.19h-2.248zm12.229 22.362h6.438c5.371.114 7.619-3.543 7.619-7.353V65.396c0-3.924-2.248-7.391-7.619-7.391h-6.438zm3.885-22.362h2.629c3.2 0 3.619 2.552 3.619 3.657v11.238c0 1.067-.419 3.619-3.619 3.619h-2.629zm26.134 11.162v-3.886h-8.419v-7.162h9.829v-3.962H61.695v26.21h4.229v-11.2z" style="fill:rgb(214, 46, 46);animation-play-state:paused" ></path>
<metadata xmlnsd="https://loading.io/stock/" style="animation-play-state:paused" ><dName style="animation-play-state:paused" >pdf</dName>
<dTags style="animation-play-state:paused" >type,postfix,suffix,data,pdf,file format</dTags>
<dLicense style="animation-play-state:paused" >by</dLicense>
<dSlug style="animation-play-state:paused" >ldnfo3</dSlug></metadata></g><!-- generated by https://loading.io/ --></svg>