<?xml version="1.0" encoding="utf-8"?><svg xml:space="preserve" viewBox="0 0 100 100" y="0" x="0" xmlns="http://www.w3.org/2000/svg" id="圖層_1" version="1.1" width="20px" height="20px" xmlns:xlink="http://www.w3.org/1999/xlink" style="width:30px;height:30px;background-size:initial;background-repeat-y:initial;background-repeat-x:initial;background-position-y:initial;background-position-x:initial;background-origin:initial;background-color:initial;background-clip:initial;background-attachment:initial;animation-play-state:paused" ><g class="ldl-scale" style="transform-origin:50% 50%;transform:rotate(0deg) scale(0.8, 0.8);animation-play-state:paused" ><g style="animation-play-state:paused" ><g style="animation-play-state:paused" ><path stroke-linejoin="round" stroke-linecap="round" stroke-width="3.5" stroke="#333" fill="none" d="M50 85c-19.33 0-35-15.67-35-35s15.67-35 35-35a34.832 34.832 0 0 1 17.45 4.654" style="stroke:rgb(51, 51, 51);animation-play-state:paused" ></path>
<g style="animation-play-state:paused" ><path d="M72.598 10.375L59.874 27.408l14.874-2.156z" fill="#333" style="fill:rgb(51, 51, 51);animation-play-state:paused" ></path></g></g></g>
<g style="animation-play-state:paused" ><g style="animation-play-state:paused" ><path stroke-linejoin="round" stroke-linecap="round" stroke-width="3.5" stroke="#333" fill="none" d="M80.396 32.636a34.82 34.82 0 0 1 2.165 4.5" style="stroke:rgb(51, 51, 51);animation-play-state:paused" ></path>
<path stroke-dasharray="9.0185,9.0185" stroke-linejoin="round" stroke-linecap="round" stroke-width="3.5" stroke="#333" fill="none" d="M84.758 45.86c.16 1.358.242 2.739.242 4.14 0 16.074-10.836 29.618-25.602 33.724" style="stroke:rgb(51, 51, 51);animation-play-state:paused" ></path>
<path stroke-linejoin="round" stroke-linecap="round" stroke-width="3.5" stroke="#333" fill="none" d="M54.987 84.647A35.206 35.206 0 0 1 50 85" style="stroke:rgb(51, 51, 51);animation-play-state:paused" ></path></g></g>
<g style="animation-play-state:paused" ><g style="animation-play-state:paused" ><path stroke-linejoin="round" stroke-linecap="round" stroke-width="3.5" stroke="#c33737" fill="none" d="M33.719 45.094C35.824 38.097 42.317 33 50 33c9.389 0 17 7.611 17 17s-7.611 17-17 17" style="stroke:rgb(195, 55, 55);animation-play-state:paused" ></path>
<g style="animation-play-state:paused" ><path d="M24.926 41.109l18.323 5.513-11.916 6.402z" fill="#c33737" style="fill:rgb(195, 55, 55);animation-play-state:paused" ></path></g></g></g>
<metadata xmlnsd="https://loading.io/stock/" style="animation-play-state:paused" ><dName style="animation-play-state:paused" >rewind</dName>


<dTags style="animation-play-state:paused" >rewind,reverse,back,restart,reset,time,temporal</dTags>


<dLicense style="animation-play-state:paused" >by</dLicense>


<dSlug style="animation-play-state:paused" >gt2cjn</dSlug></metadata></g><!-- generated by https://loading.io/ --></svg>